<svg width="24" height="24" viewBox="0 0 24 24" fill="none" xmlns="http://www.w3.org/2000/svg">
  <path d="M12 1.27a11 11 0 00-3.48 21.46c.55.09.73-.24.73-.53v-1.85c-3.01.65-3.64-1.45-3.64-1.45-.49-1.25-1.2-1.58-1.2-1.58-.98-.67.07-.66.07-.66 1.08.08 1.65 1.11 1.65 1.11.96 1.65 2.52 1.17 3.14.89.1-.7.38-1.17.69-1.44-2.4-.27-4.92-1.2-4.92-5.33 0-1.18.42-2.14 1.11-2.89-.11-.27-.48-1.36.11-2.84 0 0 .9-.29 2.96 1.1.86-.24 1.78-.36 2.69-.36.91 0 1.83.12 2.69.36 2.06-1.39 2.96-1.1 2.96-1.1.59 1.48.22 2.57.11 2.84.69.75 1.11 1.71 1.11 2.89 0 4.14-2.52 5.06-4.93 5.33.39.34.73 1 .73 2.01v2.98c0 .29.19.63.74.52A11 11 0 0012 1.27" fill="currentColor"/>
</svg> 